<?xml version="1.0" standalone="no"?>
<!DOCTYPE svg PUBLIC "-//W3C//DTD SVG 20010904//EN"
 "http://www.w3.org/TR/2001/REC-SVG-20010904/DTD/svg10.dtd">
<svg version="1.0" xmlns="http://www.w3.org/2000/svg"
 width="16.000000pt" height="16.000000pt" viewBox="0 0 16.000000 16.000000"
 preserveAspectRatio="xMidYMid meet">
<metadata>
Created by potrace 1.11, written by Peter Selinger 2001-2013
</metadata>
<g transform="translate(0.000000,16.000000) scale(0.006531,-0.006531)"
fill="#000000" stroke="none">
<path d="M1768 2336 c-1 -2 -39 -6 -83 -10 -183 -14 -365 -81 -520 -192 -112
-80 -175 -157 -220 -269 -50 -126 -39 -284 26 -391 l19 -31 -50 -7 c-151 -20
-346 -91 -457 -167 -109 -75 -228 -211 -273 -311 -100 -227 -53 -464 121 -613
138 -117 302 -167 549 -166 256 0 483 89 656 258 96 93 138 159 170 268 33
114 15 208 -56 288 l-32 37 48 0 c246 2 520 131 585 274 30 65 21 151 -21 207
-29 37 -45 13 -24 -36 19 -47 14 -112 -12 -147 -52 -69 -194 -141 -362 -184
-93 -24 -112 -25 -453 -28 -196 -2 -360 -6 -366 -9 -6 -4 -28 -9 -49 -13 -135
-21 -259 -98 -307 -188 -28 -53 -29 -155 -3 -206 30 -57 95 -137 139 -170 76
-57 149 -100 158 -94 24 15 6 45 -47 79 -174 112 -206 248 -86 370 141 143
534 165 681 38 96 -82 95 -195 -2 -358 -131 -219 -381 -357 -632 -350 -134 5
-214 35 -294 114 -93 92 -135 218 -127 384 16 323 227 597 519 674 l65 17 36
-32 c71 -62 161 -96 253 -94 115 2 172 56 127 120 -32 47 -69 56 -219 57
l-140 0 -12 45 c-21 80 -1 174 62 300 91 179 282 336 502 412 76 27 102 31
198 32 99 1 114 -1 151 -23 43 -24 58 -45 68 -92 8 -36 -1 -41 -37 -18 -63 38
-149 14 -183 -52 -22 -43 -14 -112 17 -146 105 -114 279 -11 279 166 0 131
-112 231 -279 247 -31 3 -61 7 -68 9 -6 2 -13 2 -15 1z m-398 -940 c24 -7 36
-18 38 -33 4 -26 -21 -36 -92 -35 -72 0 -132 18 -169 53 l-32 29 110 -1 c61
-1 126 -6 145 -13z"/>
</g>
</svg>
